<svg id="Layer_1" data-name="Layer 1" xmlns="http://www.w3.org/2000/svg" xmlns:xlink="http://www.w3.org/1999/xlink" viewBox="0 0 360.6 718"><defs><style>.cls-1{fill:url(#linear-gradient);}.cls-2{fill:#ccc;}.cls-3{fill:none;}.cls-4{fill:url(#linear-gradient-2);}.cls-5{fill:#333;}</style><linearGradient id="linear-gradient" x1="-68.6" y1="617.72" x2="436.4" y2="112.72" gradientTransform="matrix(1, 0, 0, -1, 0, 730.44)" gradientUnits="userSpaceOnUse"><stop offset="0" stop-color="#ccc"/><stop offset="1" stop-color="gray"/></linearGradient><linearGradient id="linear-gradient-2" x1="-63.77" y1="612.89" x2="430.58" y2="118.54" gradientTransform="matrix(1, 0, 0, -1, 0, 730.44)" gradientUnits="userSpaceOnUse"><stop offset="0" stop-color="#666"/><stop offset="1"/></linearGradient></defs><title>phone</title><g id="_Group_" data-name="&lt;Group&gt;"><path id="_Compound_Path_" data-name="&lt;Compound Path&gt;" class="cls-1" d="M360.4,58.32a52.07,52.07,0,0,0-52.1-52.1H59.5A52.07,52.07,0,0,0,7.4,58.32v613.8a52.07,52.07,0,0,0,52.1,52.1H308.3a52.07,52.07,0,0,0,52.1-52.1Zm-8,613.3a44.64,44.64,0,0,1-44.6,44.6H59a44.64,44.64,0,0,1-44.6-44.6V57.82A44.64,44.64,0,0,1,59,13.22H307.8a44.64,44.64,0,0,1,44.6,44.6Z" transform="translate(-3.6 -6.22)"/><polyline id="_Path_" data-name="&lt;Path&gt;" class="cls-2" points="3.8 94.4 0 94.4 0 121.6 3.8 121.6"/><polyline id="_Path_2" data-name="&lt;Path&gt;" class="cls-2" points="356.8 246.5 360.6 246.5 360.6 162.9 356.8 162.9"/><g id="_Group_2" data-name="&lt;Group&gt;"><polyline id="_Path_3" data-name="&lt;Path&gt;" class="cls-2" points="3.8 146.7 0 146.7 0 197.5 3.8 197.5"/><polyline id="_Path_4" data-name="&lt;Path&gt;" class="cls-2" points="3.8 211.9 0 211.9 0 262.8 3.8 262.8"/></g><path id="_Path_5" data-name="&lt;Path&gt;" class="cls-3" d="M309.3,25.22H280.8c-6.1,0-8.3-.1-8.7,7.6-.4,8-5.9,12.5-13.3,14.8-2.5.8-5.3.6-8,.6H119.2c-2.7,0-5.5.3-8-.5-7.4-2.3-13-7-13.3-15-.4-7.7-2.6-7.5-8.7-7.5H60.4c-17.6,0-31,14-31,31.5V670c0,17.5,13.4,31.2,30.9,31.2h249c17.5,0,32.1-13.8,32.1-31.2V56.72C341.4,39.22,326.8,25.22,309.3,25.22Z" transform="translate(-3.6 -6.22)"/><path id="_Compound_Path_2" data-name="&lt;Compound Path&gt;" class="cls-4" d="M352.4,57.82a44.64,44.64,0,0,0-44.6-44.6H59a44.64,44.64,0,0,0-44.6,44.6v613.8A44.64,44.64,0,0,0,59,716.22H307.8a44.64,44.64,0,0,0,44.6-44.6ZM225.1,30.32a4.4,4.4,0,1,1-4.4-4.4A4.44,4.44,0,0,1,225.1,30.32Zm-59.5-2.1h39c1.7,0,3,1,3,2.5s-1.3,2.5-3,2.5h-39c-1.7,0-3-1-3-2.5A2.74,2.74,0,0,1,165.6,28.22ZM341.4,670c0,17.5-14.6,31.2-32.1,31.2H60.3c-17.5,0-30.9-13.8-30.9-31.2V56.72c0-17.5,13.4-31.5,30.9-31.5H89.1c6.1,0,8.3-.1,8.7,7.6.4,8,5.9,12.5,13.3,14.8,2.5.8,5.3.6,8,.6H250.6c2.7,0,5.5.3,8-.5,7.4-2.3,13-7,13.3-15,.4-7.7,2.6-7.5,8.7-7.5h28.5c17.5,0,32.1,14,32.1,31.5V670Z" transform="translate(-3.6 -6.22)"/><circle id="_Path_6" data-name="&lt;Path&gt;" class="cls-5" cx="217.1" cy="24.1" r="4.4"/><path id="_Path_7" data-name="&lt;Path&gt;" class="cls-5" d="M165.6,33.22h39c1.7,0,3-1,3-2.5s-1.3-2.5-3-2.5h-39c-1.7,0-3,1-3,2.5A2.74,2.74,0,0,0,165.6,33.22Z" transform="translate(-3.6 -6.22)"/></g></svg>